<?xml version="1.0" standalone="no"?>
<!DOCTYPE svg PUBLIC "-//W3C//DTD SVG 1.1//EN" "http://www.w3.org/Graphics/SVG/1.1/DTD/svg11.dtd"><svg t="1690965131919"
  class="icon" viewBox="0 0 1024 1024" version="1.1" xmlns="http://www.w3.org/2000/svg" p-id="2259"
  xmlns:xlink="http://www.w3.org/1999/xlink" width="200" height="200">
  <path
    d="M317.056 448a32 32 0 0 1 4.352 63.701333L317.056 512H268.202667c-34.304 0-62.293333 25.642667-65.28 58.197333l-0.256 5.802667V768c0 33.28 26.069333 60.8 59.562666 63.744l5.973334 0.256h487.594666c34.304 0 62.293333-25.642667 65.28-58.197333L821.333333 768v-192c0-33.28-26.069333-60.8-59.562666-63.744l-5.973334-0.256h-48.682666a32 32 0 0 1-4.352-63.701333l4.352-0.298667h48.682666c68.864 0 125.354667 53.162667 129.28 120.448l0.256 7.552V768c0 68.266667-54.016 123.904-121.941333 127.786667l-7.594667 0.213333H268.202667c-68.864 0-125.354667-53.162667-129.28-120.448L138.666667 768v-192c0-68.266667 54.016-123.904 121.941333-127.786667l7.594667-0.213333H317.013333z"
    fill="#454ce1" p-id="2260"></path>
  <path d="M480 614.570667v-405.333334a32 32 0 1 1 64 0v405.333334a32 32 0 1 1-64 0z" fill="#454ce1" p-id="2261"></path>
  <path
    d="M534.613333 129.28a32 32 0 0 0-45.226666 0L323.413333 295.253333a32 32 0 0 0 45.269334 45.226667L512 197.162667l143.317333 143.36a32 32 0 0 0 45.226667-45.312L534.613333 129.28z"
    fill="#454ce1" p-id="2262"></path>
</svg>